<?xml version="1.0" encoding="utf-8"?>
<!-- Generator: Adobe Illustrator 20.1.0, SVG Export Plug-In . SVG Version: 6.00 Build 0)  -->
<svg version="1.1" id="Layer_1" xmlns="http://www.w3.org/2000/svg" xmlns:xlink="http://www.w3.org/1999/xlink" x="0px" y="0px"
	 viewBox="0 0 100 100" style="enable-background:new 0 0 100 100;" xml:space="preserve">
<path d="M98.1,88.7L80.5,71.2c-1.6-1.6-3.8-2.2-5.8-1.8l-5.8-5.8c5.5-6.7,8.9-15.3,8.9-24.7C77.7,17.4,60.3,0,38.9,0S0,17.4,0,38.9
	s17.4,38.9,38.9,38.9c9.4,0,18-3.3,24.7-8.9l5.8,5.8c-0.4,2.1,0.2,4.2,1.8,5.8l17.5,17.5c1.3,1.3,3,1.9,4.7,1.9
	c1.7,0,3.4-0.6,4.7-1.9C100.6,95.5,100.6,91.3,98.1,88.7z M38.9,70.2c-17.3,0-31.3-14.1-31.3-31.3c0-17.3,14-31.3,31.3-31.3
	c17.3,0,31.3,14.1,31.3,31.3S56.1,70.2,38.9,70.2z"/>
</svg>
